<svg width="16" height="16" viewBox="0 0 16 16" fill="none" xmlns="http://www.w3.org/2000/svg">
<g clip-path="url(#clip0_177_6)">
<path fill-rule="evenodd" clip-rule="evenodd" d="M13.1854 11.3818V4.6182C13.1854 5.236 12.2924 5.78123 10.9309 6.1063C10.0971 6.30533 9.08767 6.42183 8 6.42183C6.91233 6.42183 5.90287 6.30533 5.0691 6.1063C3.70757 5.78123 2.81455 5.236 2.81455 4.6182V11.3818C2.81455 11.9996 3.70757 12.5449 5.0691 12.8699C5.90287 13.069 6.91233 13.1855 8 13.1855C9.08767 13.1855 10.0971 13.069 10.9309 12.8699C12.2924 12.5449 13.1854 11.9996 13.1854 11.3818V11.3818Z" fill="black"/>
<path fill-rule="evenodd" clip-rule="evenodd" d="M3.48241 4.61736C3.49121 4.64243 3.53968 4.74873 3.79258 4.9121C4.09891 5.11 4.58264 5.3049 5.22348 5.4579C5.99981 5.64326 6.95664 5.75523 7.99958 5.75523C9.04251 5.75523 9.99934 5.64326 10.7757 5.4579C11.4165 5.3049 11.9002 5.11 12.2066 4.9121C12.4594 4.74873 12.5079 4.64243 12.5167 4.61736C12.5091 4.59593 12.4773 4.5325 12.3541 4.4311C12.1751 4.28393 11.8758 4.12163 11.4472 3.97256C10.5962 3.67656 9.37734 3.4813 7.99958 3.4813C6.62181 3.4813 5.40288 3.67656 4.55191 3.97256C4.12331 4.12163 3.82404 4.28393 3.64508 4.4311C3.52181 4.5325 3.49001 4.59593 3.48241 4.61736ZM12.5183 6.26263C12.1054 6.46423 11.6163 6.62803 11.0853 6.7548C10.1941 6.96756 9.13201 7.08856 7.99958 7.08856C6.86714 7.08856 5.80504 6.96756 4.91388 6.7548C4.38284 6.62803 3.89371 6.46423 3.48078 6.26263V11.3759C3.48341 11.3849 3.51381 11.4956 3.79258 11.6757C4.09891 11.8736 4.58264 12.0685 5.22348 12.2215C5.99981 12.4069 6.95664 12.5189 7.99958 12.5189C9.04251 12.5189 9.99934 12.4069 10.7757 12.2215C11.4165 12.0685 11.9002 11.8736 12.2066 11.6757C12.4853 11.4956 12.5157 11.3849 12.5183 11.3759V6.26263ZM13.8517 4.61826V11.3819C13.8517 12.036 13.3856 12.5015 12.9301 12.7957C12.4495 13.1061 11.806 13.3464 11.0853 13.5184C10.1941 13.7312 9.13201 13.8522 7.99958 13.8522C6.86714 13.8522 5.80504 13.7312 4.91388 13.5184C4.19318 13.3464 3.54964 13.1061 3.06907 12.7957C2.61359 12.5015 2.14746 12.036 2.14746 11.3819V4.61826C2.14746 4.08953 2.45699 3.68186 2.79818 3.40126C3.14399 3.1169 3.60414 2.89053 4.11391 2.71322C5.13968 2.35643 6.51351 2.14795 7.99958 2.14795C9.48564 2.14795 10.8595 2.35643 11.8852 2.71322C12.395 2.89053 12.8551 3.1169 13.201 3.40126C13.5422 3.68186 13.8517 4.08953 13.8517 4.61826Z" fill="black"/>
</g>
<defs>
<clipPath id="clip0_177_6">
<rect width="16" height="16" fill="white"/>
</clipPath>
</defs>
</svg>
